<svg width="408" height="75" viewBox="0 0 408 75" fill="none" xmlns="http://www.w3.org/2000/svg">
<g clip-path="url(#clip0_4826_3714)">
<path fill-rule="evenodd" clip-rule="evenodd" d="M41.6427 1.53112e-06L24.785 0V5.87529H22.2803C15.2976 5.87529 9.63705 11.5359 9.63705 18.5186L9.63693 32.2131L15.6576 27.9237L15.6577 18.5186C15.6577 14.861 18.6227 11.8959 22.2803 11.8959H44.1387C47.7963 11.8959 50.7614 14.861 50.7614 18.5186L50.7613 23.464L56.7819 22.0612L56.782 18.5186C56.782 11.5359 51.1214 5.87529 44.1387 5.87529H41.6427V1.53112e-06ZM15.6574 52.1808L9.63675 53.5844L9.63672 57.5442C9.63672 64.5268 15.2973 70.1874 22.28 70.1874H44.1384C51.121 70.1874 56.7816 64.5268 56.7816 57.5442L56.7818 43.436L50.7611 47.7246L50.761 57.5442C50.761 61.2018 47.796 64.1668 44.1384 64.1668H22.28C18.6224 64.1668 15.6573 61.2018 15.6573 57.5442L15.6574 52.1808Z" fill="white"/>
<path d="M66.0122 27.5292C65.6686 27.0827 65.1353 26.7375 64.4992 26.5499C63.8631 26.3623 63.1618 26.3433 62.5097 26.4962L40.2632 31.6796L40.2632 22.5836C40.2634 22.1372 40.0909 21.7006 39.7671 21.3275C39.4432 20.9545 38.9821 20.6614 38.4407 20.4845C37.8993 20.3075 37.3013 20.2545 36.7205 20.3318C36.1398 20.4092 35.6016 20.6136 35.1725 20.9198L0.951233 45.3007C0.454171 45.6545 0.130089 46.1253 0.0318073 46.6364C-0.0664669 47.1475 0.0668643 47.6687 0.410057 48.1151C0.753258 48.5615 1.28608 48.9067 1.92169 49.0945C2.5573 49.2823 3.25822 49.3017 3.91019 49.1493L26.1628 43.9614L26.1628 53.0574C26.1626 53.5038 26.335 53.9404 26.6589 54.3135C26.9827 54.6865 27.4438 54.9796 27.9852 55.1565C28.5266 55.3335 29.1246 55.3865 29.7054 55.3092C30.2862 55.2318 30.8243 55.0274 31.2534 54.7212L65.4747 30.3449C65.9725 29.9912 66.2973 29.5202 66.396 29.0089C66.4947 28.4975 66.3615 27.9759 66.0182 27.5292L66.0122 27.5292Z" fill="#F4DE49"/>
</g>
<path fill-rule="evenodd" clip-rule="evenodd" d="M152.421 18.6413V24.8336C150.947 24.8035 149.482 25.0676 148.111 25.6105C146.74 26.1533 145.491 26.9641 144.438 27.9953C143.384 29.0264 142.546 30.2574 141.974 31.6161C141.401 32.9748 141.106 34.434 141.104 35.9084V59.3839H135.219V19.7569H141.104V24.2192C142.52 22.5783 144.252 21.2389 146.196 20.2807C148.14 19.3225 150.257 18.765 152.421 18.6413ZM122.915 35.1647C122.864 31.2974 121.671 27.5314 119.485 24.3406C117.299 21.1497 114.219 18.6764 110.631 17.2316C107.043 15.7869 103.109 15.4352 99.3216 16.2209C95.5346 17.0066 92.0644 18.8945 89.3475 21.6472C86.6306 24.3999 84.7884 27.8945 84.0524 31.6915C83.3164 35.4885 83.7196 39.4184 85.2112 42.9869C86.7029 46.5553 89.2163 49.603 92.4356 51.7467C95.6548 53.8904 99.436 55.0344 103.304 55.0347C106.786 55.0466 110.208 54.1254 113.214 52.3671L107.588 45.4635L112.164 41.7449L117.774 48.6485C121.11 44.9529 122.944 40.1434 122.915 35.1647ZM103.304 60.6611C97.4316 60.6429 91.7469 58.5919 87.2158 54.8567C82.6848 51.1215 79.5869 45.9325 78.4488 40.1717C77.3106 34.4109 78.2024 28.4337 80.9726 23.256C83.7427 18.0783 88.2203 14.0196 93.6444 11.7697C99.0684 9.51974 105.104 9.21742 110.726 10.9141C116.348 12.6108 121.208 16.2018 124.482 21.0768C127.756 25.9517 129.24 31.8099 128.683 37.6556C128.127 43.5013 125.563 48.9739 121.428 53.1431L128.089 61.3563L123.513 65.0749L116.82 56.8132C112.766 59.3407 108.081 60.6743 103.304 60.6611Z" fill="white"/>
<path fill-rule="evenodd" clip-rule="evenodd" d="M353.934 19.8051H359.835V54.0321C359.755 59.0992 357.847 63.9668 354.462 67.7385C351.078 71.5102 346.444 73.9321 341.415 74.558C336.386 75.1839 331.301 73.9717 327.095 71.1447C322.889 68.3178 319.846 64.0663 318.526 59.1734H324.589C325.648 62.1002 327.584 64.6289 330.133 66.4143C332.682 68.1996 335.721 69.1546 338.833 69.1488C340.807 69.1659 342.765 68.7916 344.593 68.0475C346.422 67.3034 348.085 66.2043 349.486 64.8136C350.887 63.423 351.999 61.7685 352.757 59.9456C353.514 58.1228 353.903 56.1679 353.901 54.1938C350.998 57.2202 347.255 59.3087 343.155 60.1908C339.055 61.0728 334.784 60.708 330.893 59.1432C327.002 57.5784 323.668 54.8853 321.32 51.4102C318.971 47.9351 317.717 43.8369 317.717 39.6429C317.717 35.4488 318.971 31.3507 321.32 27.8756C323.668 24.4004 327.002 21.7073 330.893 20.1425C334.784 18.5778 339.055 18.2129 343.155 19.0949C347.255 19.977 350.998 22.0655 353.901 25.092V19.8051H353.934ZM198.223 26.0782C196.233 22.117 192.958 18.9482 188.933 17.0903C184.908 15.2324 180.372 14.7954 176.066 15.8506C171.761 16.9059 167.941 19.391 165.231 22.8994C162.522 26.4079 161.083 30.732 161.15 35.1644C161.045 39.6305 162.468 43.9986 165.185 47.5448C167.902 51.091 171.749 53.6024 176.089 54.6628C180.429 55.7232 185 55.2689 189.046 53.3752C193.093 51.4815 196.37 48.2622 198.336 44.2506H204.69C202.566 49.82 198.557 54.4691 193.361 57.3899C188.165 60.3108 182.11 61.3188 176.248 60.2388C170.386 59.1588 165.087 56.0591 161.274 51.4783C157.46 46.8975 155.371 41.1251 155.371 35.1644C155.371 29.2037 157.46 23.4314 161.274 18.8506C165.087 14.2697 170.386 11.17 176.248 10.09C182.11 9.01001 188.165 10.018 193.361 12.9389C198.557 15.8598 202.566 20.5088 204.69 26.0782H198.223ZM386.98 18.6572C392.555 18.6572 397.901 20.8716 401.842 24.8133C405.784 28.7549 407.998 34.1009 407.998 39.6752C408.002 40.6492 407.932 41.6221 407.788 42.5854H372.219C372.809 45.619 374.313 48.3994 376.529 50.5529C378.745 52.7064 381.568 54.1297 384.617 54.6315C387.667 55.1333 390.797 54.6894 393.586 53.3597C396.376 52.0299 398.691 49.878 400.222 47.1932H406.689C405.326 50.7779 403.008 53.9215 399.986 56.2832C396.965 58.645 393.354 60.135 389.547 60.5919C385.739 61.0487 381.878 60.455 378.384 58.875C374.889 57.295 371.894 54.789 369.721 51.6284C367.549 48.4677 366.283 44.773 366.06 40.9443C365.838 37.1157 366.667 33.299 368.458 29.9078C370.249 26.5166 372.934 23.6801 376.221 21.7055C379.509 19.7309 383.275 18.6935 387.11 18.7057L386.98 18.6572ZM401.838 36.7165C401.155 33.279 399.3 30.1848 396.591 27.9613C393.882 25.7378 390.485 24.5225 386.98 24.5225C383.475 24.5225 380.079 25.7378 377.37 27.9613C374.66 30.1848 372.806 33.279 372.122 36.7165H401.838ZM287.258 19.8051H293.159V59.4482H287.258V54.2099C284.355 57.2364 280.612 59.3249 276.512 60.2069C272.411 61.089 268.141 60.7241 264.25 59.1594C260.359 57.5946 257.025 54.9014 254.676 51.4263C252.328 47.9512 251.074 43.8531 251.074 39.659C251.074 35.465 252.328 31.3668 254.676 27.8917C257.025 24.4166 260.359 21.7235 264.25 20.1587C268.141 18.5939 272.411 18.2291 276.512 19.1111C280.612 19.9931 284.355 22.0817 287.258 25.1081V19.8051ZM272.19 24.4938C269.196 24.5065 266.273 25.4063 263.79 27.0794C261.306 28.7524 259.375 31.1238 258.239 33.894C257.102 36.6641 256.813 39.7089 257.406 42.6437C257.999 45.5785 259.448 48.2717 261.571 50.3832C263.694 52.4948 266.395 53.9299 269.333 54.5074C272.271 55.0849 275.314 54.7788 278.078 53.6278C280.842 52.4769 283.203 50.5327 284.863 48.0407C286.523 45.5488 287.407 42.6208 287.404 39.6267C287.399 35.6145 285.804 31.7679 282.967 28.9308C280.13 26.0938 276.283 24.498 272.271 24.4938H272.19ZM216.929 36.5387V59.3836H211.028V3.55664H216.929V24.9626C218.387 23.0128 220.278 21.4273 222.451 20.3305C224.625 19.2337 227.024 18.6555 229.459 18.6411C231.536 18.6383 233.594 19.0514 235.509 19.8561C237.425 20.6607 239.16 21.8405 240.612 23.3261C242.065 24.8117 243.205 26.573 243.966 28.5062C244.727 30.4394 245.094 32.5053 245.044 34.5824V59.3836H239.143V34.0003C239.165 32.7287 238.932 31.4655 238.458 30.2852C237.984 29.1049 237.279 28.0312 236.384 27.1274C235.49 26.2235 234.423 25.5078 233.248 25.0222C232.072 24.5366 230.811 24.2909 229.54 24.2997C227.913 24.2633 226.295 24.549 224.779 25.1405C223.263 25.732 221.879 26.6175 220.707 27.7461C219.535 28.8747 218.598 30.224 217.949 31.7164C217.301 33.2088 216.954 34.8147 216.929 36.4417V36.5387ZM317.734 18.7542V24.9465C316.26 24.9164 314.795 25.1805 313.424 25.7234C312.053 26.2662 310.804 27.077 309.751 28.1082C308.697 29.1393 307.859 30.3703 307.287 31.729C306.714 33.0877 306.419 34.5469 306.417 36.0213V59.3836H300.532V19.7566H306.417V24.2189C307.833 22.578 309.565 21.2386 311.509 20.2804C313.453 19.3222 315.57 18.7647 317.734 18.6411V18.7542ZM338.865 24.6069C335.868 24.6037 332.937 25.4899 330.443 27.1533C327.949 28.8167 326.005 31.1825 324.856 33.9513C323.708 36.72 323.406 39.7674 323.99 42.7075C324.574 45.6476 326.018 48.3484 328.137 50.4681C330.257 52.5877 332.958 54.0308 335.898 54.6148C338.838 55.1988 341.885 54.8975 344.654 53.7489C347.423 52.6003 349.789 50.6561 351.452 48.1623C353.115 45.6686 354.001 42.7374 353.998 39.7399C354.011 37.7437 353.629 35.7646 352.875 33.9165C352.12 32.0684 351.008 30.3876 349.601 28.9708C348.195 27.554 346.523 26.4291 344.68 25.6608C342.838 24.8925 340.862 24.4958 338.865 24.4938V24.6069Z" fill="white"/>
<defs>
<clipPath id="clip0_4826_3714">
<rect width="66.4274" height="70.1874" fill="white"/>
</clipPath>
</defs>
</svg>
