<svg width="181" height="34" viewBox="0 0 181 34" fill="none" xmlns="http://www.w3.org/2000/svg">
<g clip-path="url(#clip0_4845_788)">
<g clip-path="url(#clip1_4845_788)">
<path fill-rule="evenodd" clip-rule="evenodd" d="M19.1699 0.0976569L11.7477 0.0976562V2.68446H10.6449C7.57054 2.68446 5.07827 5.17673 5.07827 8.2511L5.07822 14.2806L7.72902 12.392L7.72905 8.2511C7.72905 6.64071 9.03453 5.33524 10.6449 5.33524H20.2688C21.8792 5.33524 23.1847 6.64071 23.1847 8.2511L23.1846 10.4285L25.8354 9.81088L25.8354 8.2511C25.8354 5.17672 23.3432 2.68446 20.2688 2.68446H19.1699V0.0976569ZM7.72893 23.072L5.07814 23.69L5.07813 25.4335C5.07812 28.5078 7.5704 31.0001 10.6448 31.0001H20.2687C23.343 31.0001 25.8353 28.5078 25.8353 25.4335L25.8354 19.2219L23.1846 21.1101L23.1845 25.4335C23.1845 27.0438 21.879 28.3493 20.2687 28.3493H10.6448C9.03438 28.3493 7.72891 27.0438 7.72891 25.4335L7.72893 23.072Z" fill="#121212"/>
<path d="M29.8991 12.2185C29.7478 12.0219 29.513 11.8699 29.2329 11.7873C28.9529 11.7047 28.6441 11.6964 28.357 11.7637L18.5622 14.0459L18.5622 10.041C18.5623 9.84452 18.4863 9.65227 18.3438 9.48803C18.2012 9.32379 17.9982 9.19475 17.7598 9.11685C17.5214 9.03894 17.2581 9.01557 17.0024 9.04963C16.7467 9.08369 16.5098 9.17368 16.3209 9.3085L1.25375 20.043C1.0349 20.1988 0.892208 20.4061 0.84894 20.6311C0.80567 20.8562 0.864374 21.0856 1.01548 21.2822C1.16658 21.4787 1.40117 21.6307 1.68102 21.7134C1.96087 21.7961 2.26948 21.8046 2.55653 21.7375L12.354 19.4534L12.354 23.4582C12.3539 23.6547 12.4298 23.847 12.5724 24.0112C12.715 24.1755 12.918 24.3045 13.1564 24.3824C13.3948 24.4603 13.6581 24.4837 13.9138 24.4496C14.1695 24.4156 14.4064 24.3256 14.5953 24.1907L29.6624 13.4582C29.8816 13.3025 30.0246 13.0952 30.0681 12.87C30.1115 12.6449 30.0529 12.4152 29.9017 12.2185L29.8991 12.2185Z" fill="#F3CE01"/>
</g>
<path fill-rule="evenodd" clip-rule="evenodd" d="M67.4732 8.44576V11.1928C66.8192 11.1794 66.1692 11.2966 65.5611 11.5374C64.953 11.7783 64.399 12.1379 63.9315 12.5954C63.464 13.0529 63.0924 13.5989 62.8385 14.2017C62.5845 14.8045 62.4533 15.4518 62.4525 16.1059V26.5202H59.8418V8.94066H62.4525V10.9202C63.0808 10.1923 63.849 9.59811 64.7115 9.17302C65.574 8.74793 66.5132 8.50061 67.4732 8.44576ZM54.3836 15.7759C54.3609 14.0603 53.8315 12.3896 52.8619 10.9741C51.8922 9.55854 50.5257 8.46131 48.9341 7.82038C47.3425 7.17945 45.5969 7.02345 43.9169 7.37199C42.2369 7.72053 40.6974 8.55806 39.4921 9.77924C38.2869 11.0004 37.4696 12.5507 37.1431 14.2352C36.8166 15.9196 36.9954 17.663 37.6572 19.2461C38.3189 20.8291 39.4339 22.1812 40.8621 23.1322C42.2902 24.0832 43.9677 24.5907 45.6835 24.5908C47.2284 24.596 48.7466 24.1874 50.0801 23.4074L47.5841 20.3448L49.6139 18.6951L52.1027 21.7577C53.5828 20.1182 54.3963 17.9846 54.3836 15.7759ZM45.6835 27.0868C43.0784 27.0787 40.5566 26.1689 38.5465 24.5118C36.5364 22.8548 35.1621 20.5528 34.6572 17.9972C34.1523 15.4415 34.5479 12.7899 35.7768 10.493C37.0057 8.19599 38.9921 6.39544 41.3983 5.39732C43.8046 4.39919 46.4822 4.26507 48.9761 5.01777C51.4701 5.77046 53.6264 7.36351 55.0787 9.52618C56.531 11.6888 57.1896 14.2877 56.9426 16.881C56.6955 19.4743 55.5582 21.902 53.7237 23.7516L56.6787 27.3952L54.6489 29.0449L51.6796 25.3798C49.881 26.501 47.8029 27.0927 45.6835 27.0868Z" fill="#121212"/>
<path fill-rule="evenodd" clip-rule="evenodd" d="M159.488 8.96215V24.1461C159.452 26.394 158.606 28.5534 157.104 30.2266C155.603 31.8999 153.547 32.9742 151.316 33.2519C149.085 33.5296 146.829 32.9918 144.963 31.7377C143.097 30.4836 141.748 28.5975 141.162 26.4269H143.852C144.321 27.7253 145.18 28.8471 146.311 29.6391C147.442 30.4312 148.79 30.8548 150.171 30.8523C151.046 30.8599 151.915 30.6938 152.726 30.3637C153.537 30.0336 154.275 29.546 154.897 28.9291C155.518 28.3122 156.011 27.5782 156.348 26.7695C156.684 25.9609 156.856 25.0936 156.855 24.2178C155.567 25.5604 153.907 26.487 152.088 26.8783C150.269 27.2695 148.375 27.1077 146.648 26.4135C144.922 25.7193 143.443 24.5246 142.401 22.983C141.36 21.4413 140.803 19.6233 140.803 17.7627C140.803 15.9021 141.36 14.084 142.401 12.5424C143.443 11.0008 144.922 9.806 146.648 9.11183C148.375 8.41766 150.269 8.25581 152.088 8.6471C153.907 9.03839 155.567 9.96492 156.855 11.3075V8.96215H159.488ZM87.7925 11.745C86.9097 9.98773 85.4567 8.582 83.6712 7.7578C81.8857 6.93359 79.8733 6.73969 77.9633 7.20783C76.0533 7.67597 74.3586 8.77843 73.1566 10.3349C71.9546 11.8913 71.3163 13.8096 71.3462 15.7759C71.2993 17.7572 71.9309 19.695 73.1362 21.2682C74.3414 22.8414 76.0481 23.9555 77.9733 24.4259C79.8985 24.8963 81.9266 24.6948 83.7216 23.8547C85.5165 23.0146 86.9705 21.5864 87.8427 19.8068H90.6614C89.719 22.2775 87.9408 24.34 85.6357 25.6357C83.3306 26.9315 80.6444 27.3787 78.0438 26.8996C75.4433 26.4205 73.0928 25.0453 71.4008 23.0132C69.7088 20.981 68.7823 18.4203 68.7823 15.7759C68.7823 13.1316 69.7088 10.5708 71.4008 8.53868C73.0928 6.50651 75.4433 5.13139 78.0438 4.65227C80.6444 4.17316 83.3306 4.62035 85.6357 5.91611C87.9408 7.21188 89.719 9.27433 90.6614 11.745H87.7925ZM171.53 8.45292C174.003 8.45292 176.375 9.43527 178.123 11.1839C179.872 12.9325 180.854 15.3041 180.854 17.777C180.856 18.2091 180.825 18.6407 180.761 19.0681H164.982C165.243 20.4138 165.91 21.6473 166.894 22.6027C167.877 23.558 169.129 24.1894 170.482 24.412C171.835 24.6346 173.223 24.4377 174.461 23.8478C175.698 23.2579 176.725 22.3032 177.404 21.1122H180.273C179.669 22.7025 178.64 24.097 177.3 25.1448C175.959 26.1925 174.358 26.8535 172.669 27.0562C170.979 27.2589 169.267 26.9955 167.716 26.2946C166.166 25.5936 164.837 24.4819 163.874 23.0798C162.91 21.6776 162.348 20.0385 162.249 18.34C162.151 16.6415 162.518 14.9484 163.313 13.444C164.108 11.9395 165.299 10.6812 166.757 9.8052C168.216 8.92923 169.886 8.46902 171.587 8.47443L171.53 8.45292ZM178.121 16.4645C177.818 14.9395 176.996 13.5668 175.794 12.5804C174.592 11.594 173.085 11.0549 171.53 11.0549C169.975 11.0549 168.468 11.594 167.267 12.5804C166.065 13.5668 165.242 14.9395 164.939 16.4645H178.121ZM127.291 8.96215H129.909V26.5488H127.291V24.225C126.003 25.5676 124.342 26.4941 122.523 26.8854C120.704 27.2767 118.81 27.1149 117.084 26.4207C115.357 25.7265 113.878 24.5318 112.837 22.9901C111.795 21.4485 111.238 19.6304 111.238 17.7698C111.238 15.9093 111.795 14.0912 112.837 12.5496C113.878 11.0079 115.357 9.81317 117.084 9.119C118.81 8.42483 120.704 8.26298 122.523 8.65427C124.342 9.04556 126.003 9.97209 127.291 11.3147V8.96215ZM120.606 11.0421C119.278 11.0478 117.981 11.447 116.88 12.1892C115.778 12.9314 114.921 13.9834 114.417 15.2123C113.913 16.4412 113.784 17.792 114.047 19.0939C114.311 20.3959 114.954 21.5907 115.895 22.5274C116.837 23.4641 118.035 24.1008 119.339 24.357C120.642 24.6131 121.992 24.4774 123.218 23.9668C124.444 23.4562 125.492 22.5937 126.228 21.4882C126.965 20.3827 127.357 19.0838 127.355 17.7555C127.353 15.9756 126.646 14.2691 125.387 13.0105C124.128 11.752 122.422 11.044 120.642 11.0421H120.606ZM96.0909 26.5202H93.473V1.75391H96.0909V11.2501C96.7379 10.3851 97.5765 9.68178 98.5409 9.19522C99.5053 8.70866 100.569 8.45213 101.65 8.44574C102.571 8.44452 103.484 8.62779 104.334 8.98474C105.183 9.34169 105.953 9.86511 106.597 10.5242C107.242 11.1832 107.748 11.9646 108.085 12.8222C108.423 13.6798 108.586 14.5963 108.564 15.5177V26.5202H105.946V15.2595C105.955 14.6954 105.852 14.135 105.642 13.6114C105.432 13.0878 105.119 12.6115 104.722 12.2105C104.325 11.8095 103.852 11.492 103.33 11.2766C102.809 11.0611 102.25 10.9522 101.685 10.9561C100.964 10.9399 100.246 11.0667 99.5735 11.3291C98.901 11.5915 98.2871 11.9843 97.7671 12.485C97.2471 12.9856 96.8313 13.5842 96.5436 14.2463C96.2559 14.9084 96.1021 15.6208 96.0909 16.3425V26.5202ZM140.811 11.243C140.157 11.2296 139.507 11.3468 138.899 11.5876C138.291 11.8285 137.737 12.1881 137.269 12.6456C136.802 13.103 136.43 13.6491 136.176 14.2519C135.922 14.8546 135.791 15.502 135.79 16.1561V26.5202H133.179V8.94064H135.79V10.9202C136.418 10.1923 137.187 9.59809 138.049 9.173C138.912 8.74791 139.851 8.50059 140.811 8.44574V11.243ZM150.185 11.0924C148.855 11.0909 147.555 11.4841 146.449 12.222C145.342 12.9599 144.48 14.0094 143.97 15.2377C143.461 16.466 143.327 17.8179 143.586 19.1222C143.845 20.4266 144.485 21.6247 145.426 22.565C146.366 23.5053 147.564 24.1455 148.869 24.4046C150.173 24.6637 151.525 24.53 152.753 24.0205C153.981 23.5109 155.031 22.6484 155.769 21.5421C156.507 20.4358 156.9 19.1355 156.898 17.8057C156.904 16.9201 156.735 16.0422 156.4 15.2223C156.065 14.4024 155.572 13.6568 154.948 13.0283C154.324 12.3997 153.582 11.9007 152.765 11.5599C151.947 11.219 151.071 11.0431 150.185 11.0421V11.0924Z" fill="#121212"/>
</g>
<defs>
<clipPath id="clip0_4845_788">
<rect width="181" height="34" fill="white"/>
</clipPath>
<clipPath id="clip1_4845_788">
<rect width="30.9024" height="30.9024" fill="white" transform="translate(0.0078125 0.0976562)"/>
</clipPath>
</defs>
</svg>
