<svg width="32" height="24" viewBox="0 0 32 24" fill="none" xmlns="http://www.w3.org/2000/svg">
<rect width="32" height="24" rx="2" fill="white"/>
<mask id="mask0_2988_8648" style="mask-type:luminance" maskUnits="userSpaceOnUse" x="0" y="0" width="32" height="24">
<rect width="32" height="24" rx="2" fill="white"/>
</mask>
<g mask="url(#mask0_2988_8648)">
<rect width="32" height="24" fill="#0A17A7"/>
<path fill-rule="evenodd" clip-rule="evenodd" d="M-1.46571 -2.2998L12.1904 7.37195V-1.60007H19.8095V7.37195L33.4656 -2.2998L35.1699 0.353115L24.3728 7.99993H32V15.9999H24.3728L35.1699 23.6467L33.4656 26.2997L19.8095 16.6279V25.5999H12.1904V16.6279L-1.46572 26.2997L-3.16992 23.6467L7.6271 15.9999H-3.60012e-05V7.99993H7.6271L-3.16992 0.353116L-1.46571 -2.2998Z" fill="white"/>
<path d="M21.335 7.59824L35.8097 -2.40039" stroke="#DB1F35" stroke-width="0.666667" stroke-linecap="round"/>
<path d="M22.8716 16.4367L35.8474 25.6201" stroke="#DB1F35" stroke-width="0.666667" stroke-linecap="round"/>
<path d="M9.14913 7.57285L-4.38574 -2.00488" stroke="#DB1F35" stroke-width="0.666667" stroke-linecap="round"/>
<path d="M10.6171 16.3258L-4.38574 26.7725" stroke="#DB1F35" stroke-width="0.666667" stroke-linecap="round"/>
<path fill-rule="evenodd" clip-rule="evenodd" d="M0 14.4H13.7143V24H18.2857V14.4H32V9.6H18.2857V0H13.7143V9.6H0V14.4Z" fill="#E6273E"/>
</g>
</svg>
