<svg width="48" height="48" viewBox="0 0 48 48" fill="none" xmlns="http://www.w3.org/2000/svg">
<path fill-rule="evenodd" clip-rule="evenodd" d="M29.7634 1.04711e-06L18.2347 0V4.01801H16.5218C11.7464 4.01801 7.87522 7.88919 7.87522 12.6645L7.87515 22.03L11.9926 19.0965L11.9926 12.6645C11.9926 10.1632 14.0204 8.1354 16.5218 8.1354H31.4703C33.9717 8.1354 35.9994 10.1632 35.9994 12.6645L35.9994 16.0466L40.1168 15.0873L40.1168 12.6645C40.1168 7.88919 36.2456 4.01801 31.4703 4.01801H29.7634V1.04711e-06ZM11.9924 35.6856L7.87502 36.6455L7.875 39.3535C7.875 44.1288 11.7462 48 16.5215 48H31.4701C36.2454 48 40.1166 44.1288 40.1166 39.3535L40.1167 29.7052L35.9993 32.6381L35.9992 39.3535C35.9992 41.8548 33.9715 43.8826 31.4701 43.8826H16.5215C14.0202 43.8826 11.9924 41.8548 11.9924 39.3535L11.9924 35.6856Z" fill="white"/>
<path d="M46.4287 18.8268C46.1937 18.5214 45.829 18.2853 45.394 18.157C44.959 18.0287 44.4794 18.0157 44.0334 18.1203L28.8194 21.6651L28.8194 15.4445C28.8195 15.1392 28.7016 14.8406 28.4801 14.5855C28.2586 14.3304 27.9433 14.13 27.5731 14.009C27.2028 13.888 26.7938 13.8517 26.3966 13.9046C25.9995 13.9575 25.6314 14.0973 25.338 14.3067L1.93462 30.9803C1.59469 31.2223 1.37305 31.5443 1.30585 31.8938C1.23864 32.2434 1.32982 32.5998 1.56453 32.9051C1.79923 33.2104 2.16362 33.4465 2.5983 33.5749C3.03299 33.7033 3.51233 33.7166 3.95821 33.6124L19.1764 30.0645L19.1764 36.285C19.1762 36.5903 19.2942 36.8889 19.5157 37.144C19.7371 37.3991 20.0525 37.5996 20.4227 37.7206C20.793 37.8416 21.2019 37.8779 21.5991 37.825C21.9963 37.7721 22.3643 37.6323 22.6578 37.4229L46.0611 20.7523C46.4016 20.5105 46.6237 20.1884 46.6912 19.8387C46.7587 19.4889 46.6676 19.1322 46.4328 18.8268L46.4287 18.8268Z" fill="#F4DE49"/>
</svg>
