<svg width="28" height="28" viewBox="0 0 28 28" fill="none" xmlns="http://www.w3.org/2000/svg">
<path d="M27.2862 13.0765L21.6612 17.9303L23.3749 25.189C23.4695 25.583 23.4451 25.9963 23.305 26.3765C23.1648 26.7567 22.9151 27.0868 22.5873 27.3252C22.2596 27.5636 21.8686 27.6994 21.4637 27.7157C21.0588 27.7319 20.6582 27.6278 20.3124 27.4165L13.9999 23.5315L7.68367 27.4165C7.33796 27.6266 6.9378 27.7297 6.5336 27.7129C6.12939 27.696 5.7392 27.56 5.41217 27.3218C5.08514 27.0837 4.83589 26.7541 4.6958 26.3745C4.55571 25.995 4.53105 25.5825 4.62492 25.189L6.34492 17.9303L0.719922 13.0765C0.414045 12.8121 0.192828 12.4635 0.0839002 12.0742C-0.0250279 11.6849 -0.0168401 11.2721 0.107441 10.8873C0.231722 10.5026 0.466588 10.1631 0.782708 9.91103C1.09883 9.65901 1.48219 9.5057 1.88492 9.47026L9.25992 8.87526L12.1049 1.99026C12.2589 1.61503 12.521 1.29407 12.8579 1.06818C13.1948 0.842291 13.5912 0.72168 13.9968 0.72168C14.4024 0.72168 14.7988 0.842291 15.1357 1.06818C15.4726 1.29407 15.7347 1.61503 15.8887 1.99026L18.7324 8.87526L26.1074 9.47026C26.511 9.50438 26.8954 9.65684 27.2127 9.90851C27.53 10.1602 27.7659 10.4999 27.891 10.8851C28.016 11.2703 28.0246 11.6838 27.9157 12.0738C27.8068 12.4639 27.5852 12.8131 27.2787 13.0778L27.2862 13.0765Z" fill="#F4DE49"/>
</svg>
